<?xml version="1.0" encoding="utf-8"?>
<!-- Generator: Adobe Illustrator 24.1.2, SVG Export Plug-In . SVG Version: 6.00 Build 0)  -->
<svg version="1.1" id="Layer_1" xmlns="http://www.w3.org/2000/svg" xmlns:xlink="http://www.w3.org/1999/xlink" x="0px" y="0px"
	 viewBox="0 0 314 284" style="enable-background:new 0 0 314 284;" xml:space="preserve">
<style type="text/css">
	.st0{fill:none;stroke:#000000;stroke-miterlimit:10;}
	.st1{fill:none;stroke:#0000FF;stroke-miterlimit:10;}
</style>
<g>
	<path d="M82.5,243.5v-84.7h-21C61.8,97,112,46.8,173.9,46.5l0,21.1h84.5v69.9H174l0,21.4h-21.6v84.7H82.5z"/>
	<path d="M173.4,47l0,20.1l0,1h1H258V137h-83.5h-1l0,1l0,20.4h-20.6h-1v1V243H83v-83.7v-1h-1H62c0.3-29.6,11.9-57.5,32.9-78.5
		C115.9,58.9,143.7,47.3,173.4,47 M174.4,46C111.8,46,61,96.8,61,159.4h21V244h70.9v-84.7h21.6l0-21.4H259V67.1h-84.5L174.4,46
		L174.4,46z"/>
</g>
<g>
	<path d="M117.4,209c3.4,0,6.1,2.7,6.1,6.1s-2.7,6.1-6.1,6.1s-6.1-2.7-6.1-6.1S114.1,209,117.4,209 M117.4,208
		c-3.9,0-7.1,3.2-7.1,7.1c0,3.9,3.2,7.1,7.1,7.1s7.1-3.2,7.1-7.1C124.5,211.2,121.3,208,117.4,208L117.4,208z"/>
</g>
<polygon class="st0" points="123.8,176.5 111.1,176.5 104.7,187.5 111.1,198.5 123.8,198.5 130.2,187.5 "/>
<g>
	<path d="M202.9,96.4c3.4,0,6.1,2.7,6.1,6.1s-2.7,6.1-6.1,6.1s-6.1-2.7-6.1-6.1S199.5,96.4,202.9,96.4 M202.9,95.4
		c-3.9,0-7.1,3.2-7.1,7.1s3.2,7.1,7.1,7.1c3.9,0,7.1-3.2,7.1-7.1S206.8,95.4,202.9,95.4L202.9,95.4z"/>
</g>
<polygon class="st0" points="241.5,108.9 241.5,96.1 230.5,89.8 219.4,96.1 219.4,108.9 230.5,115.3 "/>
<g>
	<path class="st1" d="M210.7,81.4l4.5-6.6v0h-4.1v-0.9h5.5v0.6l-4.5,6.5v0h4.5V82h-5.9V81.4z"/>
	<path class="st1" d="M217.5,78v-0.7h6.2V78H217.5z M217.5,80.3v-0.7h6.2v0.7H217.5z"/>
	<path class="st1" d="M227.9,82v-2.1h-3.6v-0.7l3.5-5h1.1v4.8h1.1v0.8h-1.1V82H227.9z M227.9,79.1v-2.6c0-0.4,0-0.8,0-1.2h0
		c-0.2,0.5-0.4,0.8-0.6,1.2l-1.9,2.7v0H227.9z"/>
	<path class="st1" d="M231.2,77.8c0-0.6,0-1.1,0-1.6h0.9l0,0.9h0c0.3-0.6,0.9-1.1,1.8-1.1c0.8,0,1.4,0.5,1.6,1.2h0
		c0.2-0.3,0.4-0.6,0.6-0.8c0.3-0.3,0.7-0.4,1.3-0.4c0.8,0,1.9,0.5,1.9,2.5V82h-1v-3.3c0-1.1-0.4-1.8-1.3-1.8c-0.6,0-1.1,0.4-1.2,1
		c0,0.1-0.1,0.3-0.1,0.5V82h-1v-3.5c0-0.9-0.4-1.6-1.2-1.6c-0.7,0-1.1,0.5-1.3,1.1c-0.1,0.2-0.1,0.3-0.1,0.5V82h-1V77.8z"/>
	<path class="st1" d="M241.2,77.8c0-0.6,0-1.1,0-1.6h0.9l0,0.9h0c0.3-0.6,0.9-1.1,1.8-1.1c0.8,0,1.4,0.5,1.6,1.2h0
		c0.2-0.3,0.4-0.6,0.6-0.8c0.3-0.3,0.7-0.4,1.3-0.4c0.8,0,1.9,0.5,1.9,2.5V82h-1v-3.3c0-1.1-0.4-1.8-1.3-1.8c-0.6,0-1.1,0.4-1.2,1
		c0,0.1-0.1,0.3-0.1,0.5V82h-1v-3.5c0-0.9-0.4-1.6-1.2-1.6c-0.7,0-1.1,0.5-1.3,1.1c-0.1,0.2-0.1,0.3-0.1,0.5V82h-1V77.8z"/>
</g>
</svg>
