<?xml version="1.0" encoding="utf-8"?>
<!-- Generator: Adobe Illustrator 24.1.2, SVG Export Plug-In . SVG Version: 6.00 Build 0)  -->
<svg version="1.1" id="Layer_1" xmlns="http://www.w3.org/2000/svg" xmlns:xlink="http://www.w3.org/1999/xlink" x="0px" y="0px"
	 viewBox="0 0 441.8 320.1" style="enable-background:new 0 0 441.8 320.1;" xml:space="preserve">
<style type="text/css">
	.st0{fill:none;stroke:#000000;stroke-miterlimit:10;}
	.st1{fill:none;stroke:#0000FF;stroke-miterlimit:10;}
</style>
<g>
	<path d="M401.8,135.1c0-62.6-50.7-113.3-113.3-113.4v25.4H176v62.4h112.5v26.1l25.5-0.1v112h62.4V135.2L401.8,135.1z"/>
	<path d="M288.4,21.7c0,0,0.1,0,0.1,0v-0.1L288.4,21.7z"/>
</g>
<g>
	<path d="M204.4,72.1c3.4,0,6.1,2.7,6.1,6.1s-2.7,6.1-6.1,6.1s-6.1-2.7-6.1-6.1S201.1,72.1,204.4,72.1 M204.4,71.1
		c-3.9,0-7.1,3.2-7.1,7.1c0,3.9,3.2,7.1,7.1,7.1c3.9,0,7.1-3.2,7.1-7.1C211.5,74.2,208.3,71.1,204.4,71.1L204.4,71.1z"/>
</g>
<g>
	<path d="M260.4,72.1c3.4,0,6.1,2.7,6.1,6.1s-2.7,6.1-6.1,6.1s-6.1-2.7-6.1-6.1S257.1,72.1,260.4,72.1 M260.4,71.1
		c-3.9,0-7.1,3.2-7.1,7.1c0,3.9,3.2,7.1,7.1,7.1s7.1-3.2,7.1-7.1C267.5,74.2,264.3,71.1,260.4,71.1L260.4,71.1z"/>
</g>
<g>
	<path d="M345.3,157.4c3.4,0,6.1,2.7,6.1,6.1s-2.7,6.1-6.1,6.1s-6.1-2.7-6.1-6.1S341.9,157.4,345.3,157.4 M345.3,156.4
		c-3.9,0-7.1,3.2-7.1,7.1s3.2,7.1,7.1,7.1c3.9,0,7.1-3.2,7.1-7.1S349.2,156.4,345.3,156.4L345.3,156.4z"/>
</g>
<g>
	<path d="M345.3,213.4c3.4,0,6.1,2.7,6.1,6.1s-2.7,6.1-6.1,6.1s-6.1-2.7-6.1-6.1S341.9,213.4,345.3,213.4 M345.3,212.4
		c-3.9,0-7.1,3.2-7.1,7.1s3.2,7.1,7.1,7.1c3.9,0,7.1-3.2,7.1-7.1S349.2,212.4,345.3,212.4L345.3,212.4z"/>
</g>
<polygon class="st0" points="271.5,84.5 271.5,71.8 260.4,65.4 249.4,71.8 249.4,84.5 260.4,90.9 "/>
<polygon class="st0" points="356.3,225.9 356.3,213.1 345.3,206.7 334.2,213.1 334.2,225.9 345.3,232.3 "/>
<g>
	<path class="st1" d="M241.1,59.1l4.5-6.6v0h-4.1v-0.9h5.5v0.6l-4.5,6.5v0h4.5v0.9h-5.9V59.1z"/>
	<path class="st1" d="M247.8,55.7V55h6.2v0.7H247.8z M247.8,58v-0.7h6.2V58H247.8z"/>
	<path class="st1" d="M258.3,59.7v-2.1h-3.6v-0.7l3.5-5h1.1v4.8h1.1v0.8h-1.1v2.1H258.3z M258.3,56.8v-2.6c0-0.4,0-0.8,0-1.2h0
		c-0.2,0.5-0.4,0.8-0.6,1.2l-1.9,2.7v0H258.3z"/>
	<path class="st1" d="M261.5,55.5c0-0.6,0-1.1,0-1.6h0.9l0,0.9h0c0.3-0.6,0.9-1.1,1.8-1.1c0.8,0,1.4,0.5,1.6,1.2h0
		c0.2-0.3,0.4-0.6,0.6-0.8c0.3-0.3,0.7-0.4,1.3-0.4c0.8,0,1.9,0.5,1.9,2.5v3.4h-1v-3.3c0-1.1-0.4-1.8-1.3-1.8c-0.6,0-1.1,0.4-1.2,1
		c0,0.1-0.1,0.3-0.1,0.5v3.6h-1v-3.5c0-0.9-0.4-1.6-1.2-1.6c-0.7,0-1.1,0.5-1.3,1.1c-0.1,0.2-0.1,0.3-0.1,0.5v3.5h-1V55.5z"/>
	<path class="st1" d="M271.5,55.5c0-0.6,0-1.1,0-1.6h0.9l0,0.9h0c0.3-0.6,0.9-1.1,1.8-1.1c0.8,0,1.4,0.5,1.6,1.2h0
		c0.2-0.3,0.4-0.6,0.6-0.8c0.3-0.3,0.7-0.4,1.3-0.4c0.8,0,1.9,0.5,1.9,2.5v3.4h-1v-3.3c0-1.1-0.4-1.8-1.3-1.8c-0.6,0-1.1,0.4-1.2,1
		c0,0.1-0.1,0.3-0.1,0.5v3.6h-1v-3.5c0-0.9-0.4-1.6-1.2-1.6c-0.7,0-1.1,0.5-1.3,1.1c-0.1,0.2-0.1,0.3-0.1,0.5v3.5h-1V55.5z"/>
</g>
<g>
	<path d="M66.5,143.7c0,62.6,50.7,113.3,113.3,113.4v-25.4h112.5v-62.4H179.8v-26.1l-25.5,0.1v-112H91.9v112.2L66.5,143.7z"/>
	<path d="M179.9,257.1c0,0-0.1,0-0.1,0v0.1L179.9,257.1z"/>
</g>
<g>
	<path d="M263.8,194.5c3.4,0,6.1,2.7,6.1,6.1s-2.7,6.1-6.1,6.1s-6.1-2.7-6.1-6.1S260.5,194.5,263.8,194.5 M263.8,193.5
		c-3.9,0-7.1,3.2-7.1,7.1c0,3.9,3.2,7.1,7.1,7.1s7.1-3.2,7.1-7.1C270.9,196.7,267.8,193.5,263.8,193.5L263.8,193.5z"/>
</g>
<g>
	<path d="M207.8,194.5c3.4,0,6.1,2.7,6.1,6.1s-2.7,6.1-6.1,6.1s-6.1-2.7-6.1-6.1S204.5,194.5,207.8,194.5 M207.8,193.5
		c-3.9,0-7.1,3.2-7.1,7.1c0,3.9,3.2,7.1,7.1,7.1c3.9,0,7.1-3.2,7.1-7.1C214.9,196.7,211.8,193.5,207.8,193.5L207.8,193.5z"/>
</g>
<g>
	<path d="M123,109.2c3.4,0,6.1,2.7,6.1,6.1s-2.7,6.1-6.1,6.1s-6.1-2.7-6.1-6.1S119.6,109.2,123,109.2 M123,108.2
		c-3.9,0-7.1,3.2-7.1,7.1c0,3.9,3.2,7.1,7.1,7.1s7.1-3.2,7.1-7.1C130.1,111.3,126.9,108.2,123,108.2L123,108.2z"/>
</g>
<g>
	<path d="M123,53.2c3.4,0,6.1,2.7,6.1,6.1s-2.7,6.1-6.1,6.1s-6.1-2.7-6.1-6.1S119.6,53.2,123,53.2 M123,52.2c-3.9,0-7.1,3.2-7.1,7.1
		c0,3.9,3.2,7.1,7.1,7.1s7.1-3.2,7.1-7.1C130.1,55.3,126.9,52.2,123,52.2L123,52.2z"/>
</g>
<polygon class="st0" points="196.8,194.2 196.8,207 207.8,213.3 218.9,207 218.9,194.2 207.8,187.8 "/>
<polygon class="st0" points="112,52.9 112,65.6 123,72 134.1,65.6 134.1,52.9 123,46.5 "/>
<g>
	<path class="st1" d="M227.2,219.6l-4.5,6.6v0h4.1v0.9h-5.5v-0.6l4.5-6.5v0h-4.5V219h5.9V219.6z"/>
	<path class="st1" d="M220.5,223.1v0.7h-6.2v-0.7H220.5z M220.5,220.7v0.7h-6.2v-0.7H220.5z"/>
	<path class="st1" d="M210,219v2.1h3.6v0.7l-3.5,5H209V222h-1.1v-0.8h1.1V219H210z M210,222v2.6c0,0.4,0,0.8,0,1.2h0
		c0.2-0.5,0.4-0.8,0.6-1.2l1.9-2.7v0H210z"/>
	<path class="st1" d="M206.8,223.3c0,0.6,0,1.1,0,1.6h-0.9l0-0.9h0c-0.3,0.6-0.9,1.1-1.8,1.1c-0.8,0-1.4-0.5-1.6-1.2h0
		c-0.2,0.3-0.4,0.6-0.6,0.8c-0.3,0.3-0.7,0.4-1.3,0.4c-0.8,0-1.9-0.5-1.9-2.5V219h1v3.3c0,1.1,0.4,1.8,1.3,1.8c0.6,0,1.1-0.4,1.2-1
		c0-0.1,0.1-0.3,0.1-0.5V219h1v3.5c0,0.9,0.4,1.6,1.2,1.6c0.7,0,1.1-0.5,1.3-1.1c0.1-0.2,0.1-0.3,0.1-0.5V219h1V223.3z"/>
	<path class="st1" d="M196.8,223.3c0,0.6,0,1.1,0,1.6h-0.9l0-0.9h0c-0.3,0.6-0.9,1.1-1.8,1.1c-0.8,0-1.4-0.5-1.6-1.2h0
		c-0.2,0.3-0.4,0.6-0.6,0.8c-0.3,0.3-0.7,0.4-1.3,0.4c-0.8,0-1.9-0.5-1.9-2.5V219h1v3.3c0,1.1,0.4,1.8,1.3,1.8c0.6,0,1.1-0.4,1.2-1
		c0-0.1,0.1-0.3,0.1-0.5V219h1v3.5c0,0.9,0.4,1.6,1.2,1.6c0.7,0,1.1-0.5,1.3-1.1c0.1-0.2,0.1-0.3,0.1-0.5V219h1V223.3z"/>
</g>
</svg>
